<svg width="28" height="25" viewBox="0 0 28 25" fill="none" xmlns="http://www.w3.org/2000/svg">
<path d="M24.2754 24.7424H24.1021C4.06992 23.6985 1.22565 8.38061 0.828069 3.7058C0.796034 3.34233 0.843452 2.9767 0.967606 2.62986C1.09176 2.28303 1.29021 1.9618 1.55159 1.68459C1.81297 1.40738 2.13213 1.17963 2.4908 1.0144C2.84947 0.849166 3.24059 0.749693 3.64175 0.721681H9.25891C9.66726 0.721322 10.0663 0.832093 10.4044 1.03964C10.7425 1.24719 11.004 1.54196 11.1551 1.88576L12.7046 5.34106C12.8538 5.67693 12.8909 6.04512 12.8111 6.3999C12.7314 6.75468 12.5384 7.08041 12.2561 7.33663L10.0847 9.32296C10.4238 11.0698 11.3469 12.68 12.729 13.9358C14.1111 15.1916 15.8855 16.0324 17.8121 16.3444L20.0243 14.3581C20.3113 14.1051 20.6741 13.9343 21.0675 13.8669C21.4609 13.7995 21.8674 13.8386 22.2365 13.9793L26.0798 15.3743C26.4535 15.5156 26.7722 15.7544 26.9956 16.0605C27.2189 16.3665 27.3366 16.7259 27.3337 17.0928V21.9708C27.3337 22.7059 27.0115 23.4109 26.438 23.9307C25.8644 24.4504 25.0865 24.7424 24.2754 24.7424ZM3.88641 2.56943C3.61604 2.56943 3.35674 2.66677 3.16556 2.84003C2.97437 3.01329 2.86697 3.24828 2.86697 3.49331V3.56722C3.33591 9.03656 6.34329 21.9708 24.2142 22.8947C24.3481 22.9022 24.4824 22.8857 24.6093 22.846C24.7361 22.8064 24.8531 22.7445 24.9535 22.6638C25.0539 22.5831 25.1357 22.4853 25.1943 22.3759C25.2529 22.2665 25.287 22.1476 25.2948 22.0262V17.0928L21.4515 15.6977L18.5257 18.3307L18.0364 18.2753C9.16716 17.2683 7.96421 9.23057 7.96421 9.14742L7.90304 8.70396L10.7983 6.05244L9.2691 2.56943H3.88641Z" fill="#1B3761"/>
</svg>
