<svg width="33" height="23" viewBox="0 0 33 23" fill="none" xmlns="http://www.w3.org/2000/svg">
<path d="M29.0535 20.938H29.4125L29.1467 20.6968L21.8892 14.1106L23.1203 12.9949L30.5304 19.7103L30.7621 19.9202V19.6076V3.43976V3.1283L30.5307 3.33682L17.5328 15.0515C17.1775 15.3716 16.6943 15.5532 16.1881 15.5532C15.6819 15.5532 15.1987 15.3716 14.8435 15.0516C14.8435 15.0516 14.8435 15.0516 14.8434 15.0515L2.17175 3.62325L1.94035 3.41456V3.72616V19.7277V20.0476L2.17372 19.8288L9.44258 13.0133L10.7009 14.1141L3.67645 20.6983L3.42073 20.938H3.77122H29.0535ZM0.730278 22.0033L0.637218 22.1059L0.730278 22.0032C0.375162 21.6814 0.17862 21.248 0.17862 20.7994V2.32187C0.17862 1.87322 0.375162 1.43983 0.730278 1.118C1.08585 0.795767 1.57078 0.612702 2.07894 0.612702H30.6235C31.1316 0.612702 31.6166 0.795767 31.9721 1.118C32.3273 1.43983 32.5238 1.87322 32.5238 2.32187V20.7994C32.5238 21.248 32.3273 21.6814 31.9721 22.0032C31.6166 22.3255 31.1316 22.5085 30.6235 22.5085H2.07894C1.57078 22.5085 1.08585 22.3255 0.730278 22.0033ZM3.41441 2.18329H3.05384L3.3216 2.42478L16.0953 13.9455L16.1881 14.0292L16.2809 13.9455L29.0648 2.42482L29.3328 2.18329H28.972H3.41441Z" fill="url(#paint0_linear_1606_695)" stroke="url(#paint1_linear_1606_695)" stroke-width="0.277163"/>
<defs>
<linearGradient id="paint0_linear_1606_695" x1="39.9911" y1="11.5606" x2="14.4096" y2="11.1481" gradientUnits="userSpaceOnUse">
<stop stop-color="#011A49"/>
<stop offset="1" stop-color="#32507D"/>
</linearGradient>
<linearGradient id="paint1_linear_1606_695" x1="39.9911" y1="11.5606" x2="14.4096" y2="11.1481" gradientUnits="userSpaceOnUse">
<stop stop-color="#011A49"/>
<stop offset="1" stop-color="#32507D"/>
</linearGradient>
</defs>
</svg>
